<?xml version="1.0" encoding="UTF-8"?><svg xmlns="http://www.w3.org/2000/svg" xmlns:xlink="http://www.w3.org/1999/xlink" contentScriptType="text/ecmascript" width="900" zoomAndPan="magnify" contentStyleType="text/css" viewBox="0 0 900 899.99999" height="899.99999" preserveAspectRatio="xMidYMid meet" version="1.0"><defs><clipPath id="clip-0"><path d="M 36.546875 26.425781 L 806.046875 26.425781 L 806.046875 796 L 36.546875 796 Z M 36.546875 26.425781 " clip-rule="nonzero"/></clipPath><clipPath id="clip-1"><path d="M 197 582 L 646 582 L 646 870.925781 L 197 870.925781 Z M 197 582 " clip-rule="nonzero"/></clipPath></defs><g clip-path="url(#clip-0)"><path fill="rgb(70.199585%, 92.158508%, 67.83905%)" d="M 806.078125 411.089844 C 806.078125 623.476562 633.871094 795.632812 421.421875 795.632812 C 208.972656 795.632812 36.761719 623.476562 36.761719 411.089844 C 36.753906 198.703125 208.972656 26.546875 421.421875 26.546875 C 633.871094 26.542969 806.078125 198.703125 806.078125 411.089844 " fill-opacity="1" fill-rule="nonzero"/></g><path fill="rgb(19.999695%, 8.239746%, 12.548828%)" d="M 542.195312 178.0625 C 542.195312 243.660156 488.996094 296.84375 423.378906 296.84375 C 357.765625 296.84375 304.566406 243.660156 304.566406 178.0625 C 304.566406 112.480469 357.765625 59.308594 423.378906 59.308594 C 488.996094 59.308594 542.195312 112.480469 542.195312 178.0625 " fill-opacity="1" fill-rule="nonzero"/><g clip-path="url(#clip-1)"><path fill="rgb(100%, 100%, 100%)" d="M 645.847656 796.6875 C 626.816406 810.886719 606.390625 823.328125 584.8125 833.734375 C 581.53125 835.324219 578.25 836.84375 574.917969 838.335938 C 528.0625 859.34375 476.113281 871.023438 421.421875 871.023438 C 366.730469 871.023438 314.804688 859.34375 267.949219 838.335938 C 264.59375 836.84375 261.289062 835.324219 258.03125 833.734375 C 236.453125 823.300781 216.023438 810.886719 197.019531 796.6875 C 200.347656 722.347656 239.855469 657.414062 298.371094 619.070312 C 333.710938 595.882812 375.988281 582.414062 421.421875 582.414062 C 428.351562 582.414062 435.210938 582.734375 441.945312 583.34375 C 479.589844 586.75 514.519531 599.40625 544.472656 619.070312 C 571.414062 636.722656 594.316406 660.007812 611.507812 687.238281 C 631.691406 719.191406 644.011719 756.578125 645.847656 796.6875 " fill-opacity="1" fill-rule="nonzero"/></g><path fill="rgb(96.859741%, 77.648926%, 58.81958%)" d="M 544.472656 619.070312 C 541.042969 645 529.605469 668.433594 512.679688 686.746094 C 490 711.304688 457.523438 726.707031 421.421875 726.707031 C 363.59375 726.707031 315 687.164062 301.210938 633.636719 C 299.984375 628.886719 299.03125 624.015625 298.371094 619.070312 C 333.710938 595.882812 375.988281 582.414062 421.421875 582.414062 C 428.351562 582.414062 435.210938 582.707031 441.96875 583.34375 C 443.144531 583.441406 444.320312 583.566406 445.472656 583.6875 C 446.207031 583.761719 446.941406 583.835938 447.652344 583.933594 C 448.460938 584.007812 449.269531 584.128906 450.054688 584.226562 C 450.542969 584.277344 451.058594 584.347656 451.546875 584.421875 C 452.257812 584.496094 452.992188 584.617188 453.726562 584.714844 C 454.289062 584.789062 454.855469 584.886719 455.441406 584.960938 C 455.929688 585.035156 456.421875 585.109375 456.910156 585.207031 C 457.742188 585.328125 458.550781 585.476562 459.382812 585.597656 C 462.960938 586.210938 466.511719 586.894531 470.015625 587.679688 L 472.367188 588.195312 C 472.808594 588.316406 473.273438 588.414062 473.714844 588.535156 C 474.546875 588.730469 475.402344 588.929688 476.210938 589.148438 C 476.359375 589.171875 476.480469 589.199219 476.578125 589.222656 C 477.632812 589.492188 478.683594 589.761719 479.714844 590.054688 C 480.839844 590.324219 481.941406 590.640625 483.019531 590.960938 C 484.269531 591.304688 485.492188 591.671875 486.742188 592.039062 C 487.699219 592.332031 488.652344 592.625 489.609375 592.945312 C 490.222656 593.140625 490.859375 593.335938 491.445312 593.53125 C 492.449219 593.847656 493.453125 594.191406 494.433594 594.535156 C 495.660156 594.953125 496.859375 595.367188 498.058594 595.808594 C 498.15625 595.855469 498.230469 595.882812 498.304688 595.90625 C 499.554688 596.347656 500.777344 596.8125 502.003906 597.277344 C 502.910156 597.644531 503.839844 597.988281 504.769531 598.378906 C 507.195312 599.335938 509.570312 600.339844 511.921875 601.367188 L 515.007812 602.761719 C 515.9375 603.179688 516.871094 603.621094 517.800781 604.058594 C 518.65625 604.476562 519.488281 604.867188 520.324219 605.285156 C 521.105469 605.652344 521.867188 606.042969 522.625 606.433594 C 523.113281 606.679688 523.628906 606.925781 524.117188 607.195312 C 526.152344 608.222656 528.136719 609.300781 530.09375 610.378906 C 530.804688 610.769531 531.539062 611.183594 532.226562 611.578125 C 532.691406 611.847656 533.132812 612.089844 533.574219 612.335938 L 535.238281 613.316406 L 536.929688 614.34375 L 538.03125 615.003906 C 539.085938 615.617188 540.113281 616.253906 541.140625 616.914062 C 542.269531 617.625 543.371094 618.335938 544.472656 619.070312 " fill-opacity="1" fill-rule="nonzero"/><path fill="rgb(96.859741%, 77.648926%, 58.81958%)" d="M 464.675781 532.097656 L 464.675781 617.160156 C 464.675781 638.683594 447.066406 656.3125 425.558594 656.3125 L 417.28125 656.3125 C 395.777344 656.3125 378.191406 638.683594 378.191406 617.160156 L 378.191406 532.097656 C 378.191406 510.574219 395.777344 492.96875 417.28125 492.96875 L 425.558594 492.96875 C 447.066406 492.96875 464.675781 510.574219 464.675781 532.097656 " fill-opacity="1" fill-rule="nonzero"/><path fill="rgb(61.959839%, 22.349548%, 16.859436%)" d="M 464.675781 532.097656 L 464.675781 577.101562 C 451.816406 584.25 438.175781 588.414062 424.335938 588.414062 C 408 588.414062 392.421875 583.859375 378.191406 575.949219 L 378.191406 532.097656 C 378.191406 510.574219 395.777344 492.96875 417.28125 492.96875 L 425.558594 492.96875 C 447.066406 492.96875 464.675781 510.574219 464.675781 532.097656 " fill-opacity="1" fill-rule="nonzero"/><path fill="rgb(96.859741%, 77.648926%, 58.81958%)" d="M 554.785156 479.355469 C 554.785156 479.355469 580.402344 470.640625 596.765625 442.089844 C 614.546875 411.089844 603.378906 391.773438 599.851562 387.585938 C 590.226562 376.148438 575.359375 383.496094 572.910156 387.585938 C 570.460938 391.675781 534.992188 456.070312 554.785156 479.355469 " fill-opacity="1" fill-rule="nonzero"/><path fill="rgb(61.959839%, 22.349548%, 16.859436%)" d="M 579.890625 397.746094 C 579.890625 397.746094 596.152344 399.828125 590.445312 422.671875 C 584.714844 445.542969 569.699219 454.578125 549.273438 466.257812 C 528.871094 477.9375 559.488281 402.398438 579.890625 397.746094 " fill-opacity="1" fill-rule="nonzero"/><path fill="rgb(96.859741%, 77.648926%, 58.81958%)" d="M 294.71875 479.355469 C 294.71875 479.355469 269.101562 470.640625 252.738281 442.089844 C 234.933594 411.089844 246.101562 391.773438 249.628906 387.585938 C 259.253906 376.148438 274.121094 383.496094 276.570312 387.585938 C 279.019531 391.675781 314.511719 456.070312 294.71875 479.355469 " fill-opacity="1" fill-rule="nonzero"/><path fill="rgb(61.959839%, 22.349548%, 16.859436%)" d="M 269.589844 397.746094 C 269.589844 397.746094 253.351562 399.828125 259.058594 422.671875 C 264.765625 445.542969 279.804688 454.578125 300.207031 466.257812 C 320.632812 477.9375 290.015625 402.398438 269.589844 397.746094 " fill-opacity="1" fill-rule="nonzero"/><path fill="rgb(96.859741%, 77.648926%, 58.81958%)" d="M 579.890625 382.664062 C 579.890625 288.8125 510.597656 212.710938 425.09375 212.710938 C 339.613281 212.710938 270.277344 288.8125 270.277344 382.664062 C 270.277344 476.515625 339.613281 574.628906 425.09375 574.628906 C 505.429688 574.628906 579.890625 475.730469 579.890625 382.664062 " fill-opacity="1" fill-rule="nonzero"/><path fill="rgb(19.999695%, 8.239746%, 12.548828%)" d="M 439.03125 314.128906 C 439.03125 314.128906 468.152344 407.785156 577.683594 398.503906 C 577.683594 398.503906 596.8125 370.863281 590.347656 310.75 C 583.046875 243 523.015625 185.996094 425.09375 206.394531 C 425.09375 206.394531 416.15625 254.554688 439.03125 314.128906 " fill-opacity="1" fill-rule="nonzero"/><path fill="rgb(19.999695%, 8.239746%, 12.548828%)" d="M 443.929688 212.710938 C 443.929688 212.710938 447.996094 194.984375 433.300781 181.101562 C 418.605469 167.214844 224.035156 195.71875 270.277344 382.664062 C 270.277344 382.664062 315.636719 270.863281 435.75 261.070312 L 443.929688 212.710938 " fill-opacity="1" fill-rule="nonzero"/><path fill="rgb(94.898987%, 95.289612%, 95.289612%)" d="M 848.28125 899.75 L 416.289062 899.75 C 408.023438 899.75 401.289062 893.015625 401.289062 884.753906 L 401.289062 606.492188 C 401.289062 598.230469 408.023438 591.5 416.289062 591.5 L 848.28125 591.5 C 856.546875 591.5 863.28125 598.230469 863.28125 606.492188 L 863.28125 884.753906 C 863.28125 893.015625 856.546875 899.75 848.28125 899.75 Z M 848.28125 899.75 " fill-opacity="1" fill-rule="nonzero"/><path stroke-linecap="round" transform="matrix(23.200925, 0, 0, 23.403346, 447.475733, 671.513361)" fill="none" stroke-linejoin="miter" d="M 0.500083 -0.0000701655 L 6.902879 -0.0000701655 " stroke="rgb(100%, 100%, 100%)" stroke-width="1" stroke-opacity="1" stroke-miterlimit="4"/><path stroke-linecap="round" transform="matrix(23.255983, 0.000000000000007988, -0.000000000000008039, 23.403346, 460.252565, 734.34279)" fill="none" stroke-linejoin="miter" d="M 0.499929 0.0000410382 L 13.206505 0.0000410382 " stroke="rgb(100%, 100%, 100%)" stroke-width="1" stroke-opacity="1" stroke-miterlimit="4"/><path stroke-linecap="round" transform="matrix(39.668135, 0, 0, 39.277908, 473.029372, 836.326488)" fill="none" stroke-linejoin="miter" d="M 0.499996 0.0000416715 L 3.508551 0.0000416715 " stroke="rgb(47.44873%, 76.078796%, 44.309998%)" stroke-width="1" stroke-opacity="1" stroke-miterlimit="4"/></svg>